<svg version="1.1" id="Layer_1" xmlns="http://www.w3.org/2000/svg" xmlns:xlink="http://www.w3.org/1999/xlink" x="0px" y="0px"
	 width="100%" viewBox="0 0 1024 1024" enable-background="new 0 0 1024 1024" xml:space="preserve">
<path fill="#000000" opacity="1.000000" stroke="none" 
	d="
M606.000000,1025.000000 
	C404.000000,1025.000000 202.500000,1025.000000 1.000000,1025.000000 
	C1.000000,683.666687 1.000000,342.333344 1.000000,1.000000 
	C342.333344,1.000000 683.666687,1.000000 1025.000000,1.000000 
	C1025.000000,342.333344 1025.000000,683.666687 1025.000000,1025.000000 
	C885.500000,1025.000000 746.000000,1025.000000 606.000000,1025.000000 
M217.088181,832.914917 
	C217.088181,832.914917 217.123581,832.905334 217.202789,833.595032 
	C220.170883,835.990723 223.138962,838.386414 226.172318,840.823303 
	C226.172318,840.823303 226.213104,840.888855 226.297287,841.558899 
	C229.330643,844.343262 232.116226,847.473328 235.438583,849.854370 
	C253.512329,862.808044 271.239227,876.339111 290.035706,888.160583 
	C304.196747,897.066956 319.411713,904.586670 334.836884,911.119629 
	C353.464172,919.008728 372.553131,926.055115 391.920532,931.874451 
	C408.583527,936.881226 425.849945,940.015137 442.987000,943.248779 
	C450.840027,944.730652 459.022827,944.464783 467.680267,945.023438 
	C468.096863,945.022766 468.513489,945.022156 469.364563,945.642761 
	C470.066498,946.045166 470.743408,946.743469 471.474152,946.805298 
	C480.712830,947.586243 489.948914,948.677429 499.205566,948.915833 
	C532.440002,949.771790 565.384460,946.866882 598.311462,940.515808 
	C597.471313,939.945129 596.824219,939.505676 596.983093,939.025391 
	C602.491882,937.907959 607.996826,936.770935 613.512390,935.687988 
	C614.802368,935.434753 616.140503,935.432068 617.435303,935.197144 
	C620.448669,934.650269 623.452881,934.050232 626.453064,933.434143 
	C627.709839,933.176086 628.955139,932.851990 630.191406,932.506958 
	C633.135010,931.685547 636.070068,930.833862 639.000000,930.000000 
	C639.000000,930.000000 638.993774,930.009033 639.646973,929.854858 
	C644.872498,928.099915 650.101562,926.355591 655.322510,924.587158 
	C661.717529,922.420959 668.146057,920.343506 674.473999,917.995422 
	C676.579285,917.214233 678.321899,915.495667 680.397156,914.586548 
	C687.894897,911.302124 695.463684,908.179749 703.000000,905.000000 
	C703.000000,905.000000 702.995300,905.006531 703.720337,904.859070 
	C715.144897,898.851929 727.089905,893.646912 737.873535,886.651672 
	C754.542175,875.839050 770.751648,864.238831 786.518250,852.141724 
	C798.341797,843.070068 809.848694,833.362671 820.256470,822.725037 
	C833.356323,809.335876 845.781128,795.176086 857.404724,780.484558 
	C868.506042,766.453186 879.101318,751.848694 888.276917,736.513611 
	C897.993103,720.275085 906.169678,703.065002 914.252930,685.918274 
	C919.249329,675.319885 922.888550,664.074341 926.965698,653.055969 
	C927.791443,650.824341 927.562988,648.212708 928.322327,645.944214 
	C929.672424,641.910706 931.840637,638.115112 932.872925,634.019897 
	C934.258911,628.521912 934.627441,622.772278 935.917725,617.243958 
	C937.336975,611.163391 939.513123,605.260193 940.951111,599.183105 
	C941.696350,596.033508 940.534119,592.054565 942.050476,589.550537 
	C944.583923,585.367065 945.233154,581.420227 944.507629,576.820129 
	C944.271240,575.321838 944.913757,573.683716 945.161072,572.110596 
	C946.057556,566.408752 948.685364,560.254822 947.345764,555.139343 
	C946.123962,550.473816 947.042297,546.977234 947.897644,542.950928 
	C948.306458,541.026794 948.803955,539.048401 948.746948,537.109680 
	C948.145630,516.653259 947.391113,496.201294 946.798157,475.744629 
	C946.646606,470.518036 947.233398,465.257751 946.881165,460.053558 
	C946.645081,456.566254 944.973633,453.187927 944.627869,449.693207 
	C944.214600,445.516815 944.530334,441.268311 944.530334,437.051025 
	C944.161743,437.043091 943.793091,437.035156 943.424500,437.027222 
	C943.129700,437.693665 942.834961,438.360138 942.377014,439.395599 
	C940.472595,433.175018 943.202087,426.382721 938.690369,421.060242 
	C938.327515,420.632141 938.895203,419.510284 938.807800,418.735992 
	C938.532043,416.294189 938.277344,413.837433 937.768494,411.438660 
	C937.374695,409.582367 936.611267,407.804504 936.000854,406.000000 
	C936.000854,406.000000 935.993225,406.011017 936.328369,405.433258 
	C935.209106,401.022552 934.257568,396.560364 932.924194,392.215363 
	C931.541565,387.709595 929.686157,383.350922 928.222961,378.867401 
	C926.170227,372.577301 924.673828,366.079041 922.247009,359.943695 
	C918.271790,349.893646 914.177979,339.844238 909.341492,330.191711 
	C901.639038,314.819244 893.772156,299.486237 885.049316,284.681793 
	C878.336731,273.289124 870.661743,262.379822 862.581116,251.898178 
	C852.558777,238.897751 842.435486,225.815704 830.970886,214.127258 
	C817.046814,199.931458 802.396667,186.233353 786.746826,174.000748 
	C768.493042,159.732697 749.469177,146.186234 729.564880,134.373169 
	C712.373840,124.170380 693.776489,116.121193 675.248535,108.454796 
	C660.140564,102.203575 644.321228,97.575859 628.627502,92.860016 
	C608.399597,86.781685 587.669495,83.258965 566.650879,80.775818 
	C548.956970,78.685455 531.355530,76.553581 513.517029,77.143951 
	C500.896698,77.561623 488.210052,77.321342 475.673645,78.578278 
	C461.005005,80.049026 446.481079,82.922539 431.869690,85.015137 
	C408.570831,88.351944 386.076752,95.007126 364.078674,102.929474 
	C347.416626,108.930138 331.435272,116.895187 315.359467,124.430801 
	C294.544800,134.187775 275.040771,146.286133 256.702179,160.077988 
	C243.314453,170.146484 230.099686,180.599045 217.881348,192.028076 
	C203.720490,205.274155 189.799149,219.004990 177.486511,233.937592 
	C163.579315,250.804047 150.905090,268.803864 138.972534,287.142334 
	C130.498322,300.165894 123.406677,314.237335 117.030212,328.439240 
	C109.426102,345.375458 102.722740,362.768738 96.618210,380.308228 
	C92.015915,393.531494 88.559883,407.200653 85.370201,420.852722 
	C83.113815,430.510254 81.820869,440.433105 80.700920,450.305939 
	C79.235809,463.221558 77.593163,476.193726 77.409615,489.161133 
	C77.086426,511.993530 77.566841,534.848083 78.251747,557.677124 
	C78.446167,564.157288 80.674171,570.556458 81.681709,577.037537 
	C82.822105,584.373291 83.218620,591.844727 84.694542,599.103516 
	C86.906540,609.982422 89.558861,620.786560 92.462494,631.503662 
	C93.870743,636.701355 96.527649,641.549316 98.156799,646.701843 
	C99.753304,651.751038 100.227913,657.193604 102.132751,662.099365 
	C107.299545,675.406067 112.432098,688.771851 118.542908,701.656677 
	C130.672089,727.231262 145.678802,751.153503 162.542389,773.868042 
	C167.964767,781.171692 174.155594,787.904785 180.268265,795.540710 
	C184.539505,799.986267 188.810745,804.431885 193.093491,808.906433 
	C193.093491,808.906433 193.122772,808.917297 193.225937,809.600708 
	C197.762665,814.520508 202.199707,819.538208 206.887314,824.309814 
	C208.658112,826.112244 211.007935,827.345947 213.133652,828.865540 
	C213.133652,828.865540 213.159012,828.906250 213.243912,829.583923 
	C214.523300,830.682190 215.802704,831.780457 217.088181,832.914917 
M948.913513,497.036011 
	C948.913513,506.673767 948.913513,516.311523 948.913513,525.949219 
	C949.909729,516.220154 949.912659,506.499420 949.872864,496.778839 
	C949.872437,496.668335 949.317261,496.560089 948.913513,497.036011 
M75.989220,517.414673 
	C75.989220,520.241699 75.989220,523.068726 75.989220,525.895752 
	C76.241310,525.881470 76.493408,525.867126 76.745499,525.852844 
	C76.745499,516.269836 76.745499,506.686829 76.745499,497.103851 
	C76.492401,497.104034 76.239311,497.104218 75.986214,497.104401 
	C75.986214,503.549988 75.986214,509.995575 75.989220,517.414673 
z"/>
<path fill="#162843" opacity="1.000000" stroke="none" 
	d="
M936.012146,405.991791 
	C936.611267,407.804504 937.374695,409.582367 937.768494,411.438660 
	C938.277344,413.837433 938.532043,416.294189 938.807800,418.735992 
	C938.895203,419.510284 938.327515,420.632141 938.690369,421.060242 
	C943.202087,426.382721 940.472595,433.175018 942.377014,439.395599 
	C942.834961,438.360138 943.129700,437.693665 943.424500,437.027222 
	C943.793091,437.035156 944.161743,437.043091 944.530334,437.051025 
	C944.530334,441.268311 944.214600,445.516815 944.627869,449.693207 
	C944.973633,453.187927 946.645081,456.566254 946.881165,460.053558 
	C947.233398,465.257751 946.646606,470.518036 946.798157,475.744629 
	C947.391113,496.201294 948.145630,516.653259 948.746948,537.109680 
	C948.803955,539.048401 948.306458,541.026794 947.897644,542.950928 
	C947.042297,546.977234 946.123962,550.473816 947.345764,555.139343 
	C948.685364,560.254822 946.057556,566.408752 945.161072,572.110596 
	C944.913757,573.683716 944.271240,575.321838 944.507629,576.820129 
	C945.233154,581.420227 944.583923,585.367065 942.050476,589.550537 
	C940.534119,592.054565 941.696350,596.033508 940.951111,599.183105 
	C939.513123,605.260193 937.336975,611.163391 935.917725,617.243958 
	C934.627441,622.772278 934.258911,628.521912 932.872925,634.019897 
	C931.840637,638.115112 929.672424,641.910706 928.322327,645.944214 
	C927.562988,648.212708 927.791443,650.824341 926.965698,653.055969 
	C922.888550,664.074341 919.249329,675.319885 914.252930,685.918274 
	C906.169678,703.065002 897.993103,720.275085 888.276917,736.513611 
	C879.101318,751.848694 868.506042,766.453186 857.404724,780.484558 
	C845.781128,795.176086 833.356323,809.335876 820.256470,822.725037 
	C809.848694,833.362671 798.341797,843.070068 786.518250,852.141724 
	C770.751648,864.238831 754.542175,875.839050 737.873535,886.651672 
	C727.089905,893.646912 715.144897,898.851929 703.346375,904.888184 
	C702.972412,904.917297 703.005676,904.996277 703.005676,904.996216 
	C695.463684,908.179749 687.894897,911.302124 680.397156,914.586548 
	C678.321899,915.495667 676.579285,917.214233 674.473999,917.995422 
	C668.146057,920.343506 661.717529,922.420959 655.322510,924.587158 
	C650.101562,926.355591 644.872498,928.099915 639.305298,929.893433 
	C638.963623,929.931946 639.008545,929.994385 639.008545,929.994385 
	C636.070068,930.833862 633.135010,931.685547 630.191406,932.506958 
	C628.955139,932.851990 627.709839,933.176086 626.453064,933.434143 
	C623.452881,934.050232 620.448669,934.650269 617.435303,935.197144 
	C616.140503,935.432068 614.802368,935.434753 613.512390,935.687988 
	C607.996826,936.770935 602.491882,937.907959 596.151611,939.036743 
	C591.555969,939.690735 587.808472,940.461365 584.024719,940.952820 
	C570.684143,942.685486 557.331116,944.322449 543.596619,946.006836 
	C542.185486,946.029297 541.160583,946.040649 539.663574,946.029175 
	C532.049622,946.318176 524.898438,947.029358 517.767883,946.861023 
	C501.483246,946.476501 485.208710,945.661621 468.930084,945.021484 
	C468.513489,945.022156 468.096863,945.022766 467.021545,944.813232 
	C463.253387,944.064697 460.161224,943.380188 457.031830,943.010986 
	C430.331116,939.861267 404.008179,934.546082 378.639893,925.820007 
	C358.565887,918.914978 338.975830,910.435730 319.606049,901.691528 
	C293.096954,889.724365 269.093140,873.522278 246.152206,855.718567 
	C239.609894,850.641235 232.865051,845.824890 226.213089,840.888916 
	C226.213104,840.888855 226.172318,840.823303 226.038635,840.491577 
	C222.977844,837.741699 220.050720,835.323547 217.123581,832.905334 
	C217.123581,832.905334 217.088181,832.914917 216.990082,832.584839 
	C215.647675,831.138550 214.403336,830.022400 213.158997,828.906250 
	C213.159012,828.906250 213.133652,828.865540 213.011658,828.536865 
	C206.300705,821.777954 199.711731,815.347656 193.122772,808.917297 
	C193.122772,808.917297 193.093491,808.906433 192.990417,808.566895 
	C189.490173,803.950806 186.142838,799.632446 182.634598,795.448914 
	C182.181061,794.908081 180.895187,795.065125 179.994873,794.898926 
	C174.155594,787.904785 167.964767,781.171692 162.542389,773.868042 
	C145.678802,751.153503 130.672089,727.231262 118.542908,701.656677 
	C112.432098,688.771851 107.299545,675.406067 102.132751,662.099365 
	C100.227913,657.193604 99.753304,651.751038 98.156799,646.701843 
	C96.527649,641.549316 93.870743,636.701355 92.462494,631.503662 
	C89.558861,620.786560 86.906540,609.982422 84.694542,599.103516 
	C83.218620,591.844727 82.822105,584.373291 81.681709,577.037537 
	C80.674171,570.556458 78.446167,564.157288 78.251747,557.677124 
	C77.566841,534.848083 77.086426,511.993530 77.409615,489.161133 
	C77.593163,476.193726 79.235809,463.221558 80.700920,450.305939 
	C81.820869,440.433105 83.113815,430.510254 85.370201,420.852722 
	C88.559883,407.200653 92.015915,393.531494 96.618210,380.308228 
	C102.722740,362.768738 109.426102,345.375458 117.030212,328.439240 
	C123.406677,314.237335 130.498322,300.165894 138.972534,287.142334 
	C150.905090,268.803864 163.579315,250.804047 177.486511,233.937592 
	C189.799149,219.004990 203.720490,205.274155 217.881348,192.028076 
	C230.099686,180.599045 243.314453,170.146484 256.702179,160.077988 
	C275.040771,146.286133 294.544800,134.187775 315.359467,124.430801 
	C331.435272,116.895187 347.416626,108.930138 364.078674,102.929474 
	C386.076752,95.007126 408.570831,88.351944 431.869690,85.015137 
	C446.481079,82.922539 461.005005,80.049026 475.673645,78.578278 
	C488.210052,77.321342 500.896698,77.561623 513.517029,77.143951 
	C531.355530,76.553581 548.956970,78.685455 566.650879,80.775818 
	C587.669495,83.258965 608.399597,86.781685 628.627502,92.860016 
	C644.321228,97.575859 660.140564,102.203575 675.248535,108.454796 
	C693.776489,116.121193 712.373840,124.170380 729.564880,134.373169 
	C749.469177,146.186234 768.493042,159.732697 786.746826,174.000748 
	C802.396667,186.233353 817.046814,199.931458 830.970886,214.127258 
	C842.435486,225.815704 852.558777,238.897751 862.581116,251.898178 
	C870.661743,262.379822 878.336731,273.289124 885.049316,284.681793 
	C893.772156,299.486237 901.639038,314.819244 909.341492,330.191711 
	C914.177979,339.844238 918.271790,349.893646 922.247009,359.943695 
	C924.673828,366.079041 926.170227,372.577301 928.222961,378.867401 
	C929.686157,383.350922 931.541565,387.709595 932.924194,392.215363 
	C934.257568,396.560364 935.209106,401.022552 936.142151,405.682312 
	C935.955933,405.931366 936.012146,405.991791 936.012146,405.991791 
M847.010254,403.198364 
	C844.037415,395.073792 841.439331,386.788330 838.031372,378.850586 
	C814.661011,324.417236 780.751892,277.646484 734.111023,240.961929 
	C643.552856,169.735046 541.423035,145.690186 429.388641,172.897278 
	C327.979370,197.524078 252.326462,257.872375 202.307510,349.368042 
	C169.800278,408.830902 157.689804,473.025085 162.802002,540.505920 
	C162.946518,542.413513 164.214554,544.236023 164.997162,546.832581 
	C162.187210,552.431641 159.400742,558.042725 156.562164,563.627197 
	C151.465546,573.654114 146.283401,583.637939 141.241150,593.691956 
	C137.683868,600.784973 136.768265,608.099609 141.600586,614.900696 
	C146.498734,621.794434 153.347321,624.035828 161.749161,622.239014 
	C167.070969,621.100830 172.556351,620.727478 178.175323,620.748230 
	C178.336899,621.392151 178.461029,622.048157 178.665405,622.678223 
	C193.164383,667.376099 216.029160,707.519043 247.352509,742.309204 
	C326.724915,830.466125 426.116058,872.642151 544.422302,862.137024 
	C656.793701,852.158875 745.060425,797.670105 807.880554,703.824402 
	C846.845642,645.615051 865.010742,580.626587 864.427124,510.592957 
	C864.310913,496.647034 862.455872,482.708527 861.147217,468.790619 
	C861.016174,467.396393 859.103210,466.169739 858.048767,464.171997 
	C864.061646,452.391357 870.425903,440.772064 875.939392,428.762207 
	C878.705627,422.736603 878.718018,416.049072 874.090881,410.433594 
	C869.160461,404.449982 863.148621,400.910431 854.953247,402.841858 
	C852.403809,403.442719 849.749023,403.596710 847.010254,403.198364 
M946.136963,468.553406 
	C946.274414,468.805084 946.411865,469.056732 946.549377,469.308441 
	C946.649414,469.021576 946.749512,468.734711 946.849487,468.447845 
	C946.618713,468.376129 946.388000,468.304413 946.136963,468.553406 
z"/>
<path fill="#001133" opacity="1.000000" stroke="none" 
	d="
M226.255188,841.223877 
	C232.865051,845.824890 239.609894,850.641235 246.152206,855.718567 
	C269.093140,873.522278 293.096954,889.724365 319.606049,901.691528 
	C338.975830,910.435730 358.565887,918.914978 378.639893,925.820007 
	C404.008179,934.546082 430.331116,939.861267 457.031830,943.010986 
	C460.161224,943.380188 463.253387,944.064697 466.709473,944.797241 
	C459.022827,944.464783 450.840027,944.730652 442.987000,943.248779 
	C425.849945,940.015137 408.583527,936.881226 391.920532,931.874451 
	C372.553131,926.055115 353.464172,919.008728 334.836884,911.119629 
	C319.411713,904.586670 304.196747,897.066956 290.035706,888.160583 
	C271.239227,876.339111 253.512329,862.808044 235.438583,849.854370 
	C232.116226,847.473328 229.330643,844.343262 226.255188,841.223877 
z"/>
<path fill="#001133" opacity="1.000000" stroke="none" 
	d="
M543.982849,945.995728 
	C557.331116,944.322449 570.684143,942.685486 584.024719,940.952820 
	C587.808472,940.461365 591.555969,939.690735 595.748657,939.057129 
	C596.824219,939.505676 597.471313,939.945129 598.311462,940.515808 
	C565.384460,946.866882 532.440002,949.771790 499.205566,948.915833 
	C489.948914,948.677429 480.712830,947.586243 471.474152,946.805298 
	C470.743408,946.743469 470.066498,946.045166 469.147339,945.332153 
	C485.208710,945.661621 501.483246,946.476501 517.767883,946.861023 
	C524.898438,947.029358 532.049622,946.318176 539.912109,946.188232 
	C541.749451,946.245361 542.866150,946.120544 543.982849,945.995728 
z"/>
<path fill="#001133" opacity="1.000000" stroke="none" 
	d="
M193.174347,809.259033 
	C199.711731,815.347656 206.300705,821.777954 212.991760,828.523560 
	C211.007935,827.345947 208.658112,826.112244 206.887314,824.309814 
	C202.199707,819.538208 197.762665,814.520508 193.174347,809.259033 
z"/>
<path fill="#001133" opacity="1.000000" stroke="none" 
	d="
M180.131561,795.219788 
	C180.895187,795.065125 182.181061,794.908081 182.634598,795.448914 
	C186.142838,799.632446 189.490173,803.950806 192.984680,808.552368 
	C188.810745,804.431885 184.539505,799.986267 180.131561,795.219788 
z"/>
<path fill="#11243F" opacity="1.000000" stroke="none" 
	d="
M948.967285,496.743408 
	C949.317261,496.560089 949.872437,496.668335 949.872864,496.778839 
	C949.912659,506.499420 949.909729,516.220154 948.913513,525.949219 
	C948.913513,516.311523 948.913513,506.673767 948.967285,496.743408 
z"/>
<path fill="#13233D" opacity="1.000000" stroke="none" 
	d="
M75.987717,516.927917 
	C75.986214,509.995575 75.986214,503.549988 75.986214,497.104401 
	C76.239311,497.104218 76.492401,497.104034 76.745499,497.103851 
	C76.745499,506.686829 76.745499,516.269836 76.745499,525.852844 
	C76.493408,525.867126 76.241310,525.881470 75.989220,525.895752 
	C75.989220,523.068726 75.989220,520.241699 75.987717,516.927917 
z"/>
<path fill="#001133" opacity="1.000000" stroke="none" 
	d="
M217.163177,833.250183 
	C220.050720,835.323547 222.977844,837.741699 226.006012,840.470947 
	C223.138962,838.386414 220.170883,835.990723 217.163177,833.250183 
z"/>
<path fill="#001133" opacity="1.000000" stroke="none" 
	d="
M213.201447,829.245117 
	C214.403336,830.022400 215.647675,831.138550 216.987045,832.566711 
	C215.802704,831.780457 214.523300,830.682190 213.201447,829.245117 
z"/>
<path fill="#31B7AD" opacity="1.000000" stroke="none" 
	d="
M858.017212,464.865295 
	C859.103210,466.169739 861.016174,467.396393 861.147217,468.790619 
	C862.455872,482.708527 864.310913,496.647034 864.427124,510.592957 
	C865.010742,580.626587 846.845642,645.615051 807.880554,703.824402 
	C745.060425,797.670105 656.793701,852.158875 544.422302,862.137024 
	C426.116058,872.642151 326.724915,830.466125 247.352509,742.309204 
	C216.029160,707.519043 193.164383,667.376099 178.665405,622.678223 
	C178.461029,622.048157 178.336899,621.392151 178.357376,620.123535 
	C183.611877,618.330811 188.645142,616.918884 193.772888,616.095093 
	C196.445648,615.665710 199.588440,615.545166 200.799072,619.182434 
	C202.339310,623.809998 203.467834,628.647583 205.592392,632.994629 
	C213.534348,649.244751 221.051636,665.776794 230.189056,681.345764 
	C238.239792,695.063110 247.637817,708.117004 257.568817,720.563904 
	C265.716309,730.775635 275.272095,739.921448 284.671906,749.057922 
	C292.156158,756.332642 300.095001,763.200867 308.300415,769.654053 
	C315.577362,775.377014 323.321075,780.565002 331.179230,785.476318 
	C342.196411,792.361938 353.371307,799.025574 364.753204,805.285156 
	C370.967072,808.702515 377.710510,811.177917 384.279999,813.922852 
	C393.271362,817.679688 402.114288,821.986816 411.404297,824.784607 
	C423.012177,828.280457 435.118622,830.089966 446.813202,833.335876 
	C464.042389,838.117920 481.780792,838.427917 499.358032,839.771484 
	C509.869293,840.575012 520.554504,839.574890 531.131714,838.910095 
	C541.603577,838.251892 552.206299,837.844360 562.450500,835.810486 
	C579.040283,832.516724 595.720703,828.996582 611.732300,823.674744 
	C626.361145,818.812622 640.092224,811.290283 654.331421,805.203491 
	C668.952271,798.953674 682.372559,790.731567 695.292480,781.550110 
	C713.594788,768.543884 731.041626,754.496338 745.820007,737.555481 
	C757.746460,723.883850 769.315186,709.833313 780.083191,695.242859 
	C786.736877,686.227356 791.359009,675.739807 797.309448,666.171936 
	C807.377380,649.983643 813.974487,632.267212 820.079163,614.409851 
	C823.872375,603.313843 826.363953,591.750000 829.041016,580.302917 
	C830.912781,572.299072 828.938721,570.031799 820.962830,570.011597 
	C801.298462,569.961792 781.632874,570.096619 761.970398,569.897400 
	C758.024536,569.857483 756.147644,571.696106 755.079407,574.911804 
	C752.996765,581.181335 751.426941,587.643860 749.002441,593.772400 
	C744.308167,605.638428 739.945435,617.739380 733.998474,628.977356 
	C727.900146,640.501282 720.414856,651.350891 712.895813,662.045044 
	C706.472961,671.180115 699.591675,680.087036 692.071655,688.326965 
	C685.943359,695.041931 678.711304,700.788635 671.717957,706.666443 
	C659.689819,716.776123 646.946228,725.847595 633.132935,733.467896 
	C613.982971,744.032166 594.109009,752.706177 572.736694,757.515137 
	C560.066162,760.366089 547.309753,764.018738 534.461853,764.646484 
	C509.585815,765.861877 484.460114,766.410950 459.960205,760.826416 
	C445.640808,757.562500 431.646576,752.656982 417.772583,747.738281 
	C410.032074,744.993958 402.588898,741.140930 395.451782,737.024658 
	C383.317780,730.026367 371.256042,722.828491 359.698608,714.931885 
	C352.388458,709.937256 345.809448,703.776733 339.331299,697.683350 
	C330.426910,689.307800 321.524506,680.861206 313.396027,671.753601 
	C307.875610,665.568237 303.430847,658.357239 298.966675,651.312378 
	C294.046112,643.547180 289.500000,635.531250 285.089142,627.461487 
	C282.481537,622.690796 280.278290,617.674988 278.224640,612.634338 
	C276.920044,609.432251 276.223785,605.982300 275.254730,602.643494 
	C277.868591,602.074951 280.483887,601.512878 283.094360,600.929382 
	C283.412415,600.858337 283.692810,600.609985 284.010834,600.548889 
	C290.214813,599.358887 296.378815,597.797852 302.638733,597.102905 
	C310.821472,596.194519 315.580627,591.604553 318.203094,584.296997 
	C320.272614,578.530212 318.906036,573.084961 315.064026,568.690430 
	C308.992035,561.745422 302.428223,555.229614 296.055145,548.548767 
	C281.762726,533.566284 267.460663,518.593018 253.160370,503.618042 
	C246.179031,496.307312 239.284149,488.910614 232.166672,481.734833 
	C229.076477,478.619324 225.956100,474.971924 222.097931,473.288025 
	C211.607758,468.709534 201.410385,473.983765 196.798508,484.718903 
	C192.831909,493.951996 188.128952,502.875671 183.585327,511.851990 
	C178.988220,520.933960 174.229858,529.935303 169.447205,538.921509 
	C168.124786,541.406189 166.464142,543.710938 164.958679,546.098206 
	C164.214554,544.236023 162.946518,542.413513 162.802002,540.505920 
	C157.689804,473.025085 169.800278,408.830902 202.307510,349.368042 
	C252.326462,257.872375 327.979370,197.524078 429.388641,172.897278 
	C541.423035,145.690186 643.552856,169.735046 734.111023,240.961929 
	C780.751892,277.646484 814.661011,324.417236 838.031372,378.850586 
	C841.439331,386.788330 844.037415,395.073792 846.790283,403.878937 
	C840.014099,405.882782 833.425415,407.065063 826.910339,408.566711 
	C819.539551,410.265564 816.642456,408.751190 814.049805,401.781708 
	C810.951111,393.452148 808.220886,384.914429 804.292419,376.981201 
	C798.293457,364.866486 791.780090,352.964752 784.773621,341.403809 
	C779.204102,332.213898 772.942139,323.376892 766.302612,314.921021 
	C759.720215,306.537933 752.443481,298.676392 745.171509,290.865234 
	C738.118591,283.289368 731.191345,275.463745 723.292053,268.841553 
	C712.985657,260.201355 701.943665,252.398727 690.902893,244.687012 
	C682.060730,238.510971 673.031189,232.487335 663.568298,227.346786 
	C653.205139,221.717163 642.371582,216.892426 631.514832,212.250656 
	C621.888123,208.134827 612.146301,204.046402 602.096436,201.223831 
	C589.827820,197.778107 577.072693,196.094498 564.731873,192.868591 
	C549.619507,188.918182 534.201172,188.648911 518.824890,188.115982 
	C508.430267,187.755692 497.978485,189.160339 487.576050,188.883347 
	C471.316589,188.450363 455.712524,192.341415 439.908905,194.998901 
	C437.054779,195.478851 434.236145,196.223022 431.440704,196.989502 
	C421.307007,199.767990 411.010376,202.096954 401.120148,205.576111 
	C392.184906,208.719360 383.509949,212.771439 375.059326,217.086868 
	C359.597168,224.982834 343.678131,232.301254 329.265869,241.847702 
	C314.580322,251.575150 300.988495,263.147583 287.839203,274.939667 
	C277.168610,284.508911 267.107941,294.994965 258.147888,306.173431 
	C247.614548,319.314728 237.867416,333.216217 229.050797,347.569092 
	C219.089157,363.785950 210.187561,380.684082 204.542740,399.073578 
	C200.271683,412.987701 195.400925,426.719482 191.229279,440.661743 
	C188.734695,448.999054 192.218567,452.997437 201.024033,452.995667 
	C220.021927,452.991791 239.019928,452.955566 258.017609,453.018097 
	C262.365204,453.032410 264.947266,451.505615 266.280151,447.004272 
	C268.895935,438.170654 271.658783,429.328888 275.173218,420.826263 
	C279.439575,410.504456 284.143799,400.314514 289.414764,390.472504 
	C293.661163,382.543610 298.730408,375.000305 303.988129,367.683716 
	C309.183380,360.454071 314.648621,353.321960 320.756073,346.866730 
	C330.189758,336.895782 339.859589,327.063599 350.213409,318.075897 
	C357.892914,311.409668 366.626190,305.877289 375.241791,300.392395 
	C383.710114,295.001282 392.264771,289.482910 401.427521,285.510345 
	C413.587189,280.238403 426.426788,276.555206 438.877258,271.928436 
	C454.934204,265.961456 471.830444,263.335693 488.598572,262.368195 
	C512.255249,261.003296 536.070190,261.101837 559.488037,266.853241 
	C573.849182,270.380310 587.965576,274.268982 601.775452,279.726746 
	C622.186035,287.793091 640.906372,298.606873 658.613525,311.366058 
	C663.414368,314.825409 668.329712,318.212799 672.673767,322.198425 
	C678.988037,327.991791 684.903931,334.228424 690.855774,340.405151 
	C696.679321,346.448730 702.928284,352.211151 707.919312,358.896698 
	C714.687805,367.963165 720.971008,377.493256 726.475525,387.374268 
	C732.243530,397.728363 736.864319,408.723236 741.940308,419.459900 
	C743.115601,421.946014 743.121887,423.492920 739.509949,424.036499 
	C730.360596,425.413605 721.322693,427.522125 712.180420,428.957214 
	C699.615173,430.929596 692.392334,446.037994 700.532715,455.625000 
	C712.698181,469.952332 725.937317,483.375397 738.867615,497.043152 
	C745.882935,504.458588 753.318848,511.475342 760.360229,518.867065 
	C770.017944,529.005371 779.214233,539.595947 789.109680,549.491455 
	C797.500916,557.882812 810.323547,555.200317 815.874512,546.049194 
	C820.575989,538.298523 824.451477,530.039978 828.567993,521.942932 
	C833.264771,512.704407 837.719177,503.341797 842.471069,494.132263 
	C847.536011,484.316193 852.825623,474.616028 858.017212,464.865295 
M356.767456,518.688782 
	C374.181244,541.655212 397.488525,552.983887 426.121033,553.091187 
	C478.611420,553.287903 531.102966,553.155762 583.593933,553.228088 
	C599.406860,553.249939 609.921753,563.126648 610.966064,578.981323 
	C611.359619,584.955505 611.019592,590.974121 611.232544,596.964783 
	C611.795349,612.790405 601.442627,627.433289 580.221313,627.243286 
	C506.739838,626.585510 433.248566,627.023926 359.761017,627.048767 
	C352.761108,627.051086 352.763336,627.062622 352.759460,634.187866 
	C352.748596,654.017822 352.733826,673.847778 352.724640,693.677734 
	C352.721558,700.375854 352.727081,700.389099 359.193848,700.389771 
	C437.013916,700.397766 514.833984,700.430664 592.653992,700.350281 
	C598.777710,700.343933 604.950745,699.899231 611.015686,699.049744 
	C649.456177,693.665405 677.376160,667.585693 682.798096,629.160889 
	C685.594238,609.344910 684.633179,588.970642 684.906311,568.842346 
	C684.998291,562.065430 684.139221,555.180237 682.897278,548.496460 
	C675.570740,509.066193 643.446899,480.935333 603.446777,479.324707 
	C585.811279,478.614624 568.129578,479.012115 550.468750,478.980530 
	C514.308350,478.915863 478.147461,478.986420 441.987579,478.823822 
	C427.391937,478.758209 417.106293,470.128479 415.172943,455.694855 
	C414.054016,447.341095 413.856049,438.730408 414.415070,430.313141 
	C415.600861,412.458099 425.751923,402.408600 445.160492,402.801025 
	C485.637207,403.619324 526.141785,403.076233 566.634888,403.061401 
	C599.962524,403.049194 633.290222,402.985168 666.617859,402.966980 
	C669.554016,402.965363 672.222595,403.273773 672.197754,398.824890 
	C672.076721,377.162933 672.129517,355.499512 672.233337,333.837189 
	C672.249146,330.537994 670.861145,329.402283 667.753906,329.477142 
	C663.424438,329.581512 659.090271,329.475555 654.758118,329.483337 
	C578.771606,329.619598 502.782562,329.433350 426.799500,330.019562 
	C380.372772,330.377716 344.115143,364.579102 341.057404,410.868317 
	C339.732300,430.928314 340.508789,451.155457 340.933563,471.293976 
	C341.293121,488.341614 346.591125,504.021576 356.767456,518.688782 
z"/>
<path fill="#000000" opacity="1.000000" stroke="none" 
	d="
M164.977921,546.465393 
	C166.464142,543.710938 168.124786,541.406189 169.447205,538.921509 
	C174.229858,529.935303 178.988220,520.933960 183.585327,511.851990 
	C188.128952,502.875671 192.831909,493.951996 196.798508,484.718903 
	C201.410385,473.983765 211.607758,468.709534 222.097931,473.288025 
	C225.956100,474.971924 229.076477,478.619324 232.166672,481.734833 
	C239.284149,488.910614 246.179031,496.307312 253.160370,503.618042 
	C267.460663,518.593018 281.762726,533.566284 296.055145,548.548767 
	C302.428223,555.229614 308.992035,561.745422 315.064026,568.690430 
	C318.906036,573.084961 320.272614,578.530212 318.203094,584.296997 
	C315.580627,591.604553 310.821472,596.194519 302.638733,597.102905 
	C296.378815,597.797852 290.214813,599.358887 284.010834,600.548889 
	C283.692810,600.609985 283.412415,600.858337 283.094360,600.929382 
	C280.483887,601.512878 277.868591,602.074951 275.254730,602.643494 
	C276.223785,605.982300 276.920044,609.432251 278.224640,612.634338 
	C280.278290,617.674988 282.481537,622.690796 285.089142,627.461487 
	C289.500000,635.531250 294.046112,643.547180 298.966675,651.312378 
	C303.430847,658.357239 307.875610,665.568237 313.396027,671.753601 
	C321.524506,680.861206 330.426910,689.307800 339.331299,697.683350 
	C345.809448,703.776733 352.388458,709.937256 359.698608,714.931885 
	C371.256042,722.828491 383.317780,730.026367 395.451782,737.024658 
	C402.588898,741.140930 410.032074,744.993958 417.772583,747.738281 
	C431.646576,752.656982 445.640808,757.562500 459.960205,760.826416 
	C484.460114,766.410950 509.585815,765.861877 534.461853,764.646484 
	C547.309753,764.018738 560.066162,760.366089 572.736694,757.515137 
	C594.109009,752.706177 613.982971,744.032166 633.132935,733.467896 
	C646.946228,725.847595 659.689819,716.776123 671.717957,706.666443 
	C678.711304,700.788635 685.943359,695.041931 692.071655,688.326965 
	C699.591675,680.087036 706.472961,671.180115 712.895813,662.045044 
	C720.414856,651.350891 727.900146,640.501282 733.998474,628.977356 
	C739.945435,617.739380 744.308167,605.638428 749.002441,593.772400 
	C751.426941,587.643860 752.996765,581.181335 755.079407,574.911804 
	C756.147644,571.696106 758.024536,569.857483 761.970398,569.897400 
	C781.632874,570.096619 801.298462,569.961792 820.962830,570.011597 
	C828.938721,570.031799 830.912781,572.299072 829.041016,580.302917 
	C826.363953,591.750000 823.872375,603.313843 820.079163,614.409851 
	C813.974487,632.267212 807.377380,649.983643 797.309448,666.171936 
	C791.359009,675.739807 786.736877,686.227356 780.083191,695.242859 
	C769.315186,709.833313 757.746460,723.883850 745.820007,737.555481 
	C731.041626,754.496338 713.594788,768.543884 695.292480,781.550110 
	C682.372559,790.731567 668.952271,798.953674 654.331421,805.203491 
	C640.092224,811.290283 626.361145,818.812622 611.732300,823.674744 
	C595.720703,828.996582 579.040283,832.516724 562.450500,835.810486 
	C552.206299,837.844360 541.603577,838.251892 531.131714,838.910095 
	C520.554504,839.574890 509.869293,840.575012 499.358032,839.771484 
	C481.780792,838.427917 464.042389,838.117920 446.813202,833.335876 
	C435.118622,830.089966 423.012177,828.280457 411.404297,824.784607 
	C402.114288,821.986816 393.271362,817.679688 384.279999,813.922852 
	C377.710510,811.177917 370.967072,808.702515 364.753204,805.285156 
	C353.371307,799.025574 342.196411,792.361938 331.179230,785.476318 
	C323.321075,780.565002 315.577362,775.377014 308.300415,769.654053 
	C300.095001,763.200867 292.156158,756.332642 284.671906,749.057922 
	C275.272095,739.921448 265.716309,730.775635 257.568817,720.563904 
	C247.637817,708.117004 238.239792,695.063110 230.189056,681.345764 
	C221.051636,665.776794 213.534348,649.244751 205.592392,632.994629 
	C203.467834,628.647583 202.339310,623.809998 200.799072,619.182434 
	C199.588440,615.545166 196.445648,615.665710 193.772888,616.095093 
	C188.645142,616.918884 183.611877,618.330811 178.253891,619.754944 
	C172.556351,620.727478 167.070969,621.100830 161.749161,622.239014 
	C153.347321,624.035828 146.498734,621.794434 141.600586,614.900696 
	C136.768265,608.099609 137.683868,600.784973 141.241150,593.691956 
	C146.283401,583.637939 151.465546,573.654114 156.562164,563.627197 
	C159.400742,558.042725 162.187210,552.431641 164.977921,546.465393 
M532.921204,830.954468 
	C541.389893,830.203186 549.936157,829.939636 558.312134,828.606201 
	C580.494385,825.074768 602.157776,819.372498 623.132019,811.285645 
	C643.945618,803.260803 663.598083,792.952148 682.332153,780.822144 
	C699.687500,769.584900 715.952271,756.981750 730.772583,742.591736 
	C744.126587,729.625305 756.202271,715.565979 767.202515,700.471130 
	C789.429810,669.970276 805.901428,636.743530 816.463318,600.565308 
	C818.263550,594.398743 819.595825,588.085144 820.898987,581.788757 
	C821.438538,579.182190 820.051208,577.856995 817.211487,577.870178 
	C800.045593,577.949951 782.878418,577.866760 765.715027,578.093506 
	C764.326172,578.111755 762.055664,579.816162 761.723816,581.124695 
	C756.998047,599.759277 749.048950,617.134338 740.156494,633.971008 
	C727.640808,657.667419 712.159485,679.446106 692.526978,697.846924 
	C681.054016,708.600098 669.353271,719.374268 656.487488,728.314880 
	C637.812866,741.292236 617.635315,752.013977 595.850525,759.028015 
	C583.547607,762.989136 570.945557,766.088867 558.362793,769.093445 
	C546.222900,771.992249 533.900452,773.662048 521.318237,773.398254 
	C508.730042,773.134216 495.934235,774.865662 483.583252,773.159973 
	C467.556702,770.946655 451.578857,767.153687 436.136566,762.278137 
	C420.367981,757.299500 404.774109,751.180969 390.004730,743.766724 
	C369.798889,733.623230 350.961975,720.932007 334.878326,704.852722 
	C323.167053,693.144653 311.551788,681.161743 301.374756,668.143555 
	C288.802032,652.060913 278.493530,634.371460 270.835480,615.282593 
	C268.520905,609.513184 265.799713,603.906799 262.916962,597.446228 
	C264.624298,596.765564 266.900238,595.414246 269.343048,594.959839 
	C280.925659,592.805237 292.574768,591.004578 304.144501,588.787598 
	C306.011047,588.429932 308.060394,586.953430 309.224091,585.395691 
	C312.504822,581.004028 311.655029,575.409302 306.961273,570.576111 
	C298.379303,561.739197 289.470184,553.218201 280.944824,544.328369 
	C261.729675,524.291565 242.585480,504.184998 223.584671,483.945129 
	C217.217941,477.163208 208.051163,477.678040 203.701996,487.205780 
	C195.018723,506.228333 185.534607,524.890686 176.159668,543.590759 
	C166.985611,561.890015 157.626923,580.098694 148.142883,598.239258 
	C145.793381,602.733276 145.369324,606.836243 148.719055,610.709656 
	C152.058624,614.571411 156.291138,615.873840 161.317642,614.033142 
	C164.095795,613.015747 166.922546,611.912537 169.821457,611.483337 
	C179.447586,610.058167 189.193710,609.325928 198.736130,607.502686 
	C203.506989,606.591064 205.229309,607.914124 206.689545,612.180237 
	C210.219482,622.492981 213.587051,632.940918 218.185349,642.790405 
	C225.885162,659.283264 234.594070,675.226929 244.960663,690.336243 
	C256.179993,706.688354 268.468384,722.130005 282.187836,736.294617 
	C299.640503,754.313660 319.387604,769.675903 340.662109,783.093567 
	C360.717987,795.742493 381.792542,806.190247 404.258423,813.707947 
	C412.686737,816.528381 421.397461,818.518188 430.008759,820.774597 
	C439.338287,823.219238 448.597717,826.130249 458.071594,827.785400 
	C480.915161,831.776428 504.011932,832.600098 527.166748,831.793152 
	C528.791443,831.736511 530.401489,831.262329 532.004761,830.995300 
	C532.004761,830.995300 531.998962,831.007690 532.921204,830.954468 
z"/>
<path fill="#000000" opacity="1.000000" stroke="none" 
	d="
M858.032959,464.518646 
	C852.825623,474.616028 847.536011,484.316193 842.471069,494.132263 
	C837.719177,503.341797 833.264771,512.704407 828.567993,521.942932 
	C824.451477,530.039978 820.575989,538.298523 815.874512,546.049194 
	C810.323547,555.200317 797.500916,557.882812 789.109680,549.491455 
	C779.214233,539.595947 770.017944,529.005371 760.360229,518.867065 
	C753.318848,511.475342 745.882935,504.458588 738.867615,497.043152 
	C725.937317,483.375397 712.698181,469.952332 700.532715,455.625000 
	C692.392334,446.037994 699.615173,430.929596 712.180420,428.957214 
	C721.322693,427.522125 730.360596,425.413605 739.509949,424.036499 
	C743.121887,423.492920 743.115601,421.946014 741.940308,419.459900 
	C736.864319,408.723236 732.243530,397.728363 726.475525,387.374268 
	C720.971008,377.493256 714.687805,367.963165 707.919312,358.896698 
	C702.928284,352.211151 696.679321,346.448730 690.855774,340.405151 
	C684.903931,334.228424 678.988037,327.991791 672.673767,322.198425 
	C668.329712,318.212799 663.414368,314.825409 658.613525,311.366058 
	C640.906372,298.606873 622.186035,287.793091 601.775452,279.726746 
	C587.965576,274.268982 573.849182,270.380310 559.488037,266.853241 
	C536.070190,261.101837 512.255249,261.003296 488.598572,262.368195 
	C471.830444,263.335693 454.934204,265.961456 438.877258,271.928436 
	C426.426788,276.555206 413.587189,280.238403 401.427521,285.510345 
	C392.264771,289.482910 383.710114,295.001282 375.241791,300.392395 
	C366.626190,305.877289 357.892914,311.409668 350.213409,318.075897 
	C339.859589,327.063599 330.189758,336.895782 320.756073,346.866730 
	C314.648621,353.321960 309.183380,360.454071 303.988129,367.683716 
	C298.730408,375.000305 293.661163,382.543610 289.414764,390.472504 
	C284.143799,400.314514 279.439575,410.504456 275.173218,420.826263 
	C271.658783,429.328888 268.895935,438.170654 266.280151,447.004272 
	C264.947266,451.505615 262.365204,453.032410 258.017609,453.018097 
	C239.019928,452.955566 220.021927,452.991791 201.024033,452.995667 
	C192.218567,452.997437 188.734695,448.999054 191.229279,440.661743 
	C195.400925,426.719482 200.271683,412.987701 204.542740,399.073578 
	C210.187561,380.684082 219.089157,363.785950 229.050797,347.569092 
	C237.867416,333.216217 247.614548,319.314728 258.147888,306.173431 
	C267.107941,294.994965 277.168610,284.508911 287.839203,274.939667 
	C300.988495,263.147583 314.580322,251.575150 329.265869,241.847702 
	C343.678131,232.301254 359.597168,224.982834 375.059326,217.086868 
	C383.509949,212.771439 392.184906,208.719360 401.120148,205.576111 
	C411.010376,202.096954 421.307007,199.767990 431.440704,196.989502 
	C434.236145,196.223022 437.054779,195.478851 439.908905,194.998901 
	C455.712524,192.341415 471.316589,188.450363 487.576050,188.883347 
	C497.978485,189.160339 508.430267,187.755692 518.824890,188.115982 
	C534.201172,188.648911 549.619507,188.918182 564.731873,192.868591 
	C577.072693,196.094498 589.827820,197.778107 602.096436,201.223831 
	C612.146301,204.046402 621.888123,208.134827 631.514832,212.250656 
	C642.371582,216.892426 653.205139,221.717163 663.568298,227.346786 
	C673.031189,232.487335 682.060730,238.510971 690.902893,244.687012 
	C701.943665,252.398727 712.985657,260.201355 723.292053,268.841553 
	C731.191345,275.463745 738.118591,283.289368 745.171509,290.865234 
	C752.443481,298.676392 759.720215,306.537933 766.302612,314.921021 
	C772.942139,323.376892 779.204102,332.213898 784.773621,341.403809 
	C791.780090,352.964752 798.293457,364.866486 804.292419,376.981201 
	C808.220886,384.914429 810.951111,393.452148 814.049805,401.781708 
	C816.642456,408.751190 819.539551,410.265564 826.910339,408.566711 
	C833.425415,407.065063 840.014099,405.882782 846.856323,404.257385 
	C849.749023,403.596710 852.403809,403.442719 854.953247,402.841858 
	C863.148621,400.910431 869.160461,404.449982 874.090881,410.433594 
	C878.718018,416.049072 878.705627,422.736603 875.939392,428.762207 
	C870.425903,440.772064 864.061646,452.391357 858.032959,464.518646 
M538.404480,197.134842 
	C532.938110,196.793930 527.468323,196.122726 522.006042,196.179474 
	C509.870514,196.305542 497.737488,197.113403 485.605713,197.065979 
	C466.136475,196.989853 447.247528,201.079895 428.689178,205.887817 
	C398.679382,213.662430 370.192139,225.709900 343.700409,241.945404 
	C321.253571,255.701996 300.552856,271.848846 282.253601,290.833984 
	C260.730347,313.164001 242.278671,337.774933 227.748764,365.304352 
	C215.461685,388.584381 205.853012,412.803833 200.054077,438.501587 
	C198.704712,444.481293 199.119690,444.965088 205.554443,444.958679 
	C219.386993,444.944916 233.219604,444.937744 247.052078,444.893585 
	C250.709961,444.881897 255.187302,445.998657 257.784882,444.299225 
	C260.181396,442.731323 260.560699,438.079834 261.826874,434.785919 
	C261.886566,434.630585 261.920410,434.465057 261.983246,434.311218 
	C266.927612,422.206329 270.989746,409.637756 277.042908,398.115173 
	C284.650299,383.633972 292.761658,369.138123 302.728821,356.252258 
	C313.335693,342.539337 326.022736,330.352570 338.426727,318.134064 
	C353.208649,303.573151 370.713989,292.575134 388.995789,282.994354 
	C410.526825,271.710785 433.099121,262.966125 457.190186,258.920044 
	C469.944397,256.778015 482.819427,254.454681 495.687744,254.134094 
	C509.904480,253.779922 524.178894,252.961929 538.499939,255.557114 
	C553.093262,258.201660 568.085083,258.695282 582.059875,264.368835 
	C598.197266,270.920380 614.774536,276.595978 630.330994,284.322784 
	C654.731934,296.442627 675.959290,313.272919 694.938232,332.819916 
	C706.968384,345.210144 717.509583,358.773407 726.957947,373.278778 
	C737.546265,389.534271 745.558838,406.993103 752.807434,424.866699 
	C753.960083,427.708984 753.488647,429.581329 749.493225,430.205994 
	C737.205688,432.127106 724.950623,434.359344 712.796936,436.996155 
	C705.050415,438.676849 702.461609,446.753143 707.491577,452.849396 
	C710.539612,456.543701 714.278137,459.659241 717.569580,463.163391 
	C731.212524,477.687927 744.787964,492.275879 758.418396,506.812225 
	C768.731384,517.810669 779.282715,528.592529 789.375549,539.788452 
	C799.972534,551.543762 808.401428,547.780457 812.900269,536.060608 
	C814.259766,532.518860 816.154114,529.176575 817.884216,525.784058 
	C827.299805,507.321136 836.785767,488.893921 846.155151,470.407623 
	C851.538025,459.786743 857.169800,449.259155 861.861877,438.334137 
	C864.373535,432.485992 869.466980,427.735138 868.666138,420.220398 
	C868.044678,414.388733 864.022644,409.580536 858.012817,410.588928 
	C844.595032,412.840424 831.194153,415.199707 817.815186,417.671204 
	C811.595703,418.820099 811.186707,418.456421 809.169617,412.319855 
	C806.282471,403.536621 803.591431,394.599274 799.674072,386.264771 
	C793.330444,372.768280 786.829651,359.228363 778.968689,346.594360 
	C770.582092,333.115448 761.264465,320.053223 751.012634,307.944092 
	C741.194519,296.347351 730.121338,285.682556 718.735901,275.581940 
	C708.345581,266.364075 697.115479,257.992523 685.686157,250.069183 
	C667.904358,237.741974 648.958191,227.307953 628.727356,219.539536 
	C615.437561,214.436432 601.951904,209.698456 588.262878,205.826004 
	C577.294128,202.723083 565.909546,201.047211 554.664612,198.982880 
	C549.618652,198.056564 544.462952,197.728439 538.404480,197.134842 
z"/>
<path fill="#000000" opacity="1.000000" stroke="none" 
	d="
M946.147095,468.393066 
	C946.388000,468.304413 946.618713,468.376129 946.849487,468.447876 
	C946.749512,468.734711 946.649414,469.021576 946.549316,469.308411 
	C946.411865,469.056732 946.274414,468.805084 946.147095,468.393066 
z"/>
<path fill="#000000" opacity="1.000000" stroke="none" 
	d="
M543.596619,946.006836 
	C542.866150,946.120544 541.749451,946.245361 540.384216,946.211121 
	C541.160583,946.040649 542.185486,946.029297 543.596619,946.006836 
z"/>
<path fill="#000000" opacity="1.000000" stroke="none" 
	d="
M703.002808,904.998169 
	C703.005676,904.996277 702.972412,904.917297 702.983887,904.961914 
	C702.995300,905.006531 703.000000,905.000000 703.002808,904.998169 
z"/>
<path fill="#000000" opacity="1.000000" stroke="none" 
	d="
M639.004272,929.997192 
	C639.008545,929.994385 638.963623,929.931946 638.978699,929.970459 
	C638.993774,930.009033 639.000000,930.000000 639.004272,929.997192 
z"/>
<path fill="#000000" opacity="1.000000" stroke="none" 
	d="
M936.006470,405.995911 
	C936.012146,405.991791 935.955933,405.931366 935.974609,405.971191 
	C935.993225,406.011017 936.000854,406.000000 936.006470,405.995911 
z"/>
<path fill="#172943" opacity="1.000000" stroke="none" 
	d="
M356.559967,518.395569 
	C346.591125,504.021576 341.293121,488.341614 340.933563,471.293976 
	C340.508789,451.155457 339.732300,430.928314 341.057404,410.868317 
	C344.115143,364.579102 380.372772,330.377716 426.799500,330.019562 
	C502.782562,329.433350 578.771606,329.619598 654.758118,329.483337 
	C659.090271,329.475555 663.424438,329.581512 667.753906,329.477142 
	C670.861145,329.402283 672.249146,330.537994 672.233337,333.837189 
	C672.129517,355.499512 672.076721,377.162933 672.197754,398.824890 
	C672.222595,403.273773 669.554016,402.965363 666.617859,402.966980 
	C633.290222,402.985168 599.962524,403.049194 566.634888,403.061401 
	C526.141785,403.076233 485.637207,403.619324 445.160492,402.801025 
	C425.751923,402.408600 415.600861,412.458099 414.415070,430.313141 
	C413.856049,438.730408 414.054016,447.341095 415.172943,455.694855 
	C417.106293,470.128479 427.391937,478.758209 441.987579,478.823822 
	C478.147461,478.986420 514.308350,478.915863 550.468750,478.980530 
	C568.129578,479.012115 585.811279,478.614624 603.446777,479.324707 
	C643.446899,480.935333 675.570740,509.066193 682.897278,548.496460 
	C684.139221,555.180237 684.998291,562.065430 684.906311,568.842346 
	C684.633179,588.970642 685.594238,609.344910 682.798096,629.160889 
	C677.376160,667.585693 649.456177,693.665405 611.015686,699.049744 
	C604.950745,699.899231 598.777710,700.343933 592.653992,700.350281 
	C514.833984,700.430664 437.013916,700.397766 359.193848,700.389771 
	C352.727081,700.389099 352.721558,700.375854 352.724640,693.677734 
	C352.733826,673.847778 352.748596,654.017822 352.759460,634.187866 
	C352.763336,627.062622 352.761108,627.051086 359.761017,627.048767 
	C433.248566,627.023926 506.739838,626.585510 580.221313,627.243286 
	C601.442627,627.433289 611.795349,612.790405 611.232544,596.964783 
	C611.019592,590.974121 611.359619,584.955505 610.966064,578.981323 
	C609.921753,563.126648 599.406860,553.249939 583.593933,553.228088 
	C531.102966,553.155762 478.611420,553.287903 426.121033,553.091187 
	C397.488525,552.983887 374.181244,541.655212 356.559967,518.395569 
z"/>
<path fill="#162842" opacity="1.000000" stroke="none" 
	d="
M532.018372,830.982239 
	C530.401489,831.262329 528.791443,831.736511 527.166748,831.793152 
	C504.011932,832.600098 480.915161,831.776428 458.071594,827.785400 
	C448.597717,826.130249 439.338287,823.219238 430.008759,820.774597 
	C421.397461,818.518188 412.686737,816.528381 404.258423,813.707947 
	C381.792542,806.190247 360.717987,795.742493 340.662109,783.093567 
	C319.387604,769.675903 299.640503,754.313660 282.187836,736.294617 
	C268.468384,722.130005 256.179993,706.688354 244.960663,690.336243 
	C234.594070,675.226929 225.885162,659.283264 218.185349,642.790405 
	C213.587051,632.940918 210.219482,622.492981 206.689545,612.180237 
	C205.229309,607.914124 203.506989,606.591064 198.736130,607.502686 
	C189.193710,609.325928 179.447586,610.058167 169.821457,611.483337 
	C166.922546,611.912537 164.095795,613.015747 161.317642,614.033142 
	C156.291138,615.873840 152.058624,614.571411 148.719055,610.709656 
	C145.369324,606.836243 145.793381,602.733276 148.142883,598.239258 
	C157.626923,580.098694 166.985611,561.890015 176.159668,543.590759 
	C185.534607,524.890686 195.018723,506.228333 203.701996,487.205780 
	C208.051163,477.678040 217.217941,477.163208 223.584671,483.945129 
	C242.585480,504.184998 261.729675,524.291565 280.944824,544.328369 
	C289.470184,553.218201 298.379303,561.739197 306.961273,570.576111 
	C311.655029,575.409302 312.504822,581.004028 309.224091,585.395691 
	C308.060394,586.953430 306.011047,588.429932 304.144501,588.787598 
	C292.574768,591.004578 280.925659,592.805237 269.343048,594.959839 
	C266.900238,595.414246 264.624298,596.765564 262.916962,597.446228 
	C265.799713,603.906799 268.520905,609.513184 270.835480,615.282593 
	C278.493530,634.371460 288.802032,652.060913 301.374756,668.143555 
	C311.551788,681.161743 323.167053,693.144653 334.878326,704.852722 
	C350.961975,720.932007 369.798889,733.623230 390.004730,743.766724 
	C404.774109,751.180969 420.367981,757.299500 436.136566,762.278137 
	C451.578857,767.153687 467.556702,770.946655 483.583252,773.159973 
	C495.934235,774.865662 508.730042,773.134216 521.318237,773.398254 
	C533.900452,773.662048 546.222900,771.992249 558.362793,769.093445 
	C570.945557,766.088867 583.547607,762.989136 595.850525,759.028015 
	C617.635315,752.013977 637.812866,741.292236 656.487488,728.314880 
	C669.353271,719.374268 681.054016,708.600098 692.526978,697.846924 
	C712.159485,679.446106 727.640808,657.667419 740.156494,633.971008 
	C749.048950,617.134338 756.998047,599.759277 761.723816,581.124695 
	C762.055664,579.816162 764.326172,578.111755 765.715027,578.093506 
	C782.878418,577.866760 800.045593,577.949951 817.211487,577.870178 
	C820.051208,577.856995 821.438538,579.182190 820.898987,581.788757 
	C819.595825,588.085144 818.263550,594.398743 816.463318,600.565308 
	C805.901428,636.743530 789.429810,669.970276 767.202515,700.471130 
	C756.202271,715.565979 744.126587,729.625305 730.772583,742.591736 
	C715.952271,756.981750 699.687500,769.584900 682.332153,780.822144 
	C663.598083,792.952148 643.945618,803.260803 623.132019,811.285645 
	C602.157776,819.372498 580.494385,825.074768 558.312134,828.606201 
	C549.936157,829.939636 541.389893,830.203186 532.130798,830.799316 
	C529.288025,830.421570 527.235718,830.198975 525.183350,829.976379 
	C525.170227,830.311646 525.157104,830.646973 525.143982,830.982239 
	C527.435425,830.982239 529.726929,830.982239 532.018372,830.982239 
M508.639923,774.871582 
	C506.846680,774.871582 505.053436,774.871582 503.260193,774.871582 
	C503.285889,775.133179 503.311554,775.394775 503.337250,775.656372 
	C507.503632,775.656372 511.670044,775.656372 515.836426,775.656372 
	C515.835266,775.393555 515.834045,775.130798 515.832886,774.867981 
	C513.722717,774.867981 511.612579,774.867981 508.639923,774.871582 
M464.908173,827.871155 
	C465.090729,827.719666 465.273285,827.568115 465.455841,827.416565 
	C465.319794,827.359985 465.113922,827.218750 465.060852,827.262573 
	C464.896271,827.398376 464.789795,827.604553 464.908173,827.871155 
M280.759430,591.563904 
	C280.594116,591.587708 280.428833,591.611511 280.263519,591.635254 
	C280.391754,591.661682 280.519958,591.688049 280.759430,591.563904 
M472.970398,828.560486 
	C472.970398,828.560486 472.944336,828.493347 472.970398,828.560486 
M556.954956,827.450378 
	C556.954956,827.450378 557.024597,827.453308 556.954956,827.450378 
z"/>
<path fill="#162842" opacity="1.000000" stroke="none" 
	d="
M538.880737,197.131851 
	C544.462952,197.728439 549.618652,198.056564 554.664612,198.982880 
	C565.909546,201.047211 577.294128,202.723083 588.262878,205.826004 
	C601.951904,209.698456 615.437561,214.436432 628.727356,219.539536 
	C648.958191,227.307953 667.904358,237.741974 685.686157,250.069183 
	C697.115479,257.992523 708.345581,266.364075 718.735901,275.581940 
	C730.121338,285.682556 741.194519,296.347351 751.012634,307.944092 
	C761.264465,320.053223 770.582092,333.115448 778.968689,346.594360 
	C786.829651,359.228363 793.330444,372.768280 799.674072,386.264771 
	C803.591431,394.599274 806.282471,403.536621 809.169617,412.319855 
	C811.186707,418.456421 811.595703,418.820099 817.815186,417.671204 
	C831.194153,415.199707 844.595032,412.840424 858.012817,410.588928 
	C864.022644,409.580536 868.044678,414.388733 868.666138,420.220398 
	C869.466980,427.735138 864.373535,432.485992 861.861877,438.334137 
	C857.169800,449.259155 851.538025,459.786743 846.155151,470.407623 
	C836.785767,488.893921 827.299805,507.321136 817.884216,525.784058 
	C816.154114,529.176575 814.259766,532.518860 812.900269,536.060608 
	C808.401428,547.780457 799.972534,551.543762 789.375549,539.788452 
	C779.282715,528.592529 768.731384,517.810669 758.418396,506.812225 
	C744.787964,492.275879 731.212524,477.687927 717.569580,463.163391 
	C714.278137,459.659241 710.539612,456.543701 707.491577,452.849396 
	C702.461609,446.753143 705.050415,438.676849 712.796936,436.996155 
	C724.950623,434.359344 737.205688,432.127106 749.493225,430.205994 
	C753.488647,429.581329 753.960083,427.708984 752.807434,424.866699 
	C745.558838,406.993103 737.546265,389.534271 726.957947,373.278778 
	C717.509583,358.773407 706.968384,345.210144 694.938232,332.819916 
	C675.959290,313.272919 654.731934,296.442627 630.330994,284.322784 
	C614.774536,276.595978 598.197266,270.920380 582.059875,264.368835 
	C568.085083,258.695282 553.093262,258.201660 538.499939,255.557114 
	C524.178894,252.961929 509.904480,253.779922 495.687744,254.134094 
	C482.819427,254.454681 469.944397,256.778015 457.190186,258.920044 
	C433.099121,262.966125 410.526825,271.710785 388.995789,282.994354 
	C370.713989,292.575134 353.208649,303.573151 338.426727,318.134064 
	C326.022736,330.352570 313.335693,342.539337 302.728821,356.252258 
	C292.761658,369.138123 284.650299,383.633972 277.042908,398.115173 
	C270.989746,409.637756 266.927612,422.206329 261.983246,434.311218 
	C261.920410,434.465057 261.886566,434.630585 261.826874,434.785919 
	C260.560699,438.079834 260.181396,442.731323 257.784882,444.299225 
	C255.187302,445.998657 250.709961,444.881897 247.052078,444.893585 
	C233.219604,444.937744 219.386993,444.944916 205.554443,444.958679 
	C199.119690,444.965088 198.704712,444.481293 200.054077,438.501587 
	C205.853012,412.803833 215.461685,388.584381 227.748764,365.304352 
	C242.278671,337.774933 260.730347,313.164001 282.253601,290.833984 
	C300.552856,271.848846 321.253571,255.701996 343.700409,241.945404 
	C370.192139,225.709900 398.679382,213.662430 428.689178,205.887817 
	C447.247528,201.079895 466.136475,196.989853 485.605713,197.065979 
	C497.737488,197.113403 509.870514,196.305542 522.006042,196.179474 
	C527.468323,196.122726 532.938110,196.793930 538.880737,197.131851 
M533.493713,253.549255 
	C533.493713,253.549255 533.468506,253.498062 533.493713,253.549255 
z"/>
<path fill="#000000" opacity="1.000000" stroke="none" 
	d="
M509.071167,774.869751 
	C511.612579,774.867981 513.722717,774.867981 515.832886,774.867981 
	C515.834045,775.130798 515.835266,775.393555 515.836426,775.656372 
	C511.670044,775.656372 507.503632,775.656372 503.337250,775.656372 
	C503.311554,775.394775 503.285889,775.133179 503.260193,774.871582 
	C505.053436,774.871582 506.846680,774.871582 509.071167,774.869751 
z"/>
<path fill="#000000" opacity="1.000000" stroke="none" 
	d="
M532.011597,830.988770 
	C529.726929,830.982239 527.435425,830.982239 525.143982,830.982239 
	C525.157104,830.646973 525.170227,830.311646 525.183350,829.976379 
	C527.235718,830.198975 529.288025,830.421570 531.669678,830.825928 
	C531.998962,831.007690 532.004761,830.995300 532.011597,830.988770 
z"/>
<path fill="#000000" opacity="1.000000" stroke="none" 
	d="
M464.784485,827.827271 
	C464.789795,827.604553 464.896271,827.398376 465.060852,827.262573 
	C465.113922,827.218750 465.319794,827.359985 465.455872,827.416565 
	C465.273285,827.568115 465.090729,827.719666 464.784485,827.827271 
z"/>
<path fill="#000000" opacity="1.000000" stroke="none" 
	d="
M280.703796,591.639160 
	C280.519958,591.688049 280.391754,591.661682 280.263519,591.635254 
	C280.428833,591.611511 280.594116,591.587708 280.703796,591.639160 
z"/>
<path fill="#000000" opacity="1.000000" stroke="none" 
	d="
M472.957367,828.526917 
	C472.944336,828.493347 472.970398,828.560486 472.957367,828.526917 
z"/>
<path fill="#000000" opacity="1.000000" stroke="none" 
	d="
M556.989746,827.451843 
	C557.024597,827.453308 556.954956,827.450378 556.989746,827.451843 
z"/>
<path fill="#000000" opacity="1.000000" stroke="none" 
	d="
M533.481079,253.523651 
	C533.468506,253.498062 533.493713,253.549255 533.481079,253.523651 
z"/>
</svg>